<svg width="118" height="20" viewBox="0 0 118 20" fill="none" xmlns="http://www.w3.org/2000/svg">
<g clip-path="url(#clip0_720_391)">
<path d="M118 2.36575C118 3.36143 117.22 4.14164 116.204 4.14164C115.199 4.14164 114.396 3.36143 114.396 2.36575C114.396 1.39276 115.199 0.612549 116.204 0.612549C117.22 0.612549 118 1.39276 118 2.36575ZM114.843 2.36575C114.843 3.14596 115.421 3.76741 116.213 3.76741C116.984 3.76741 117.551 3.14596 117.551 2.37709C117.551 1.59688 116.984 0.964097 116.204 0.964097C115.421 0.966365 114.843 1.59688 114.843 2.36575ZM115.925 3.28658H115.519V1.53338C115.68 1.50163 115.904 1.47895 116.192 1.47895C116.523 1.47895 116.673 1.53338 116.802 1.60822C116.898 1.68307 116.973 1.82142 116.973 1.99379C116.973 2.18658 116.823 2.33627 116.61 2.39977V2.42019C116.78 2.48369 116.877 2.61297 116.929 2.84885C116.984 3.11648 117.016 3.22308 117.059 3.28658H116.619C116.567 3.22308 116.533 3.06205 116.48 2.85792C116.449 2.66514 116.342 2.57895 116.117 2.57895H115.925V3.28658ZM115.936 2.29091H116.129C116.353 2.29091 116.535 2.21606 116.535 2.03462C116.535 1.87359 116.417 1.76699 116.161 1.76699C116.054 1.76699 115.979 1.77833 115.936 1.78967V2.29091Z" fill="#0C7496"/>
<path d="M12.2566 8.83651C12.5673 8.2128 12.7192 7.58681 12.7192 6.98124C12.7192 4.96494 11.9345 3.45669 10.3763 2.47462C8.97468 1.60142 7.14663 1.16595 4.89899 1.16595C2.8827 1.16595 1.56269 1.43132 0.934438 1.9507C0.310723 2.47462 0 3.27978 0 4.36845L0.399177 17.1761C0.453611 18.2829 1.2497 18.9611 2.75568 19.2265C3.40662 19.3353 4.04847 19.3875 4.71075 19.3875H4.99652C6.47756 19.3535 7.73633 19.1448 8.77963 18.7729L5.97632 15.9695C5.70642 16.0149 5.43425 16.0421 5.14621 16.0421C4.75384 16.0421 4.37961 15.9968 4.03487 15.9083L4.0893 14.0802V13.9986L4.14146 12.1796C4.73116 12.0708 5.25281 12.0095 5.72683 12.0095C6.32333 12.0095 6.83591 12.098 7.24189 12.2794C7.412 12.3497 7.55262 12.4382 7.6887 12.5289L11.5512 10.9594C11.3697 10.7258 11.1656 10.5285 10.9366 10.3697C11.5126 9.96827 11.9526 9.46022 12.2566 8.83651ZM7.0922 8.47135C6.36189 8.72084 5.3957 8.83651 4.19136 8.83651L4.24579 4.51133C4.53384 4.46597 4.84683 4.4501 5.17343 4.4501C5.85384 4.4501 6.45034 4.53855 6.9788 4.72226C7.98808 5.07154 8.48252 5.73154 8.48252 6.69547C8.48025 7.5596 8.01984 8.15836 7.0922 8.47135Z" fill="#123F6D"/>
<path d="M24.8329 15.1961C24.8057 12.6718 24.7059 10.5942 24.529 8.95898C24.2795 6.66825 23.7783 4.88329 23.0389 3.61772C22.1453 2.10266 20.8616 1.34286 19.1878 1.34286C18.2148 1.34286 17.3937 1.56513 16.7337 2.0006C15.4863 2.85792 14.6403 4.35484 14.1754 6.49815C13.817 8.19238 13.6333 10.2427 13.6333 12.6514C13.6333 13.926 13.6492 15.5749 13.6877 17.6003C13.7036 18.3238 13.9735 18.7366 14.4884 18.8432C14.731 18.8931 15.2119 18.9203 15.9354 18.9203C16.3436 18.9203 16.6385 18.8862 16.8086 18.8046C16.9787 18.7343 17.1125 18.6005 17.2078 18.4122C17.3075 18.2353 17.3506 17.877 17.3506 17.3508L17.3234 14.0961L21.2676 14.366V17.1217C21.2676 17.852 21.5171 18.2716 22.007 18.3714C22.2564 18.4145 22.7373 18.4417 23.454 18.4417C23.7806 18.4417 24.0505 18.4145 24.2659 18.3533C24.4769 18.2988 24.6402 18.1763 24.7354 17.979C24.8171 17.818 24.8624 17.5662 24.8624 17.2283L24.8329 15.1961ZM17.4278 10.9208C17.6251 7.31238 18.2579 5.49793 19.3102 5.49793C20.3535 5.49793 20.9795 7.21712 21.1836 10.6555L17.4278 10.9208Z" fill="#123F6D"/>
<path d="M37.7836 1.87812C37.5341 1.84183 37.2574 1.81462 36.9263 1.81462H35.384C35.0529 1.81462 34.7784 1.85091 34.5539 1.90307C34.1161 2.01874 33.9029 2.39297 33.9029 3.02576L34.0005 10.3924L30.1561 2.39524C30.0223 2.11854 29.8182 1.9575 29.5506 1.90534C29.2739 1.84183 28.9699 1.81689 28.6229 1.81689H27.0806C26.6883 1.81689 26.3753 1.86225 26.153 1.93256C25.7879 2.04823 25.5996 2.32493 25.5996 2.75359C25.5996 2.89648 25.9557 7.52557 26.652 16.65C26.7064 17.2555 26.8743 17.6479 27.16 17.7999C27.3392 17.9155 27.8563 17.97 28.7023 17.97C29.0334 17.97 29.326 17.9427 29.5664 17.8906C30.0473 17.784 30.2967 17.3825 30.2967 16.6862L30.2423 10.9866L34.157 18.131C34.3611 18.4961 34.5584 18.7207 34.7535 18.8001C34.9508 18.8794 35.2252 18.9248 35.5745 18.9248H36.1551C36.4931 18.9248 36.7788 18.8976 37.0125 18.8454C37.4751 18.7479 37.7269 18.3374 37.7609 17.6048C38.2168 8.00867 38.4391 3.10287 38.4391 2.88741C38.4436 2.29771 38.2191 1.96884 37.7836 1.87812Z" fill="#123F6D"/>
<path d="M52.0177 9.9592C51.7955 9.56682 51.3215 9.35363 50.6093 9.32641C47.8355 9.23795 46.3635 9.19259 46.2025 9.19259C45.7647 9.19259 45.4789 9.29919 45.3542 9.53053C45.2385 9.7528 45.166 10.093 45.1569 10.5466L45.1478 10.9753C45.1297 11.3223 45.1206 11.565 45.1206 11.6897C45.1206 11.9755 45.166 12.2159 45.2453 12.42C45.3338 12.6242 45.6286 12.758 46.1548 12.8033L48.8402 13.071C48.6429 14.7289 47.8241 15.5681 46.3703 15.5681C45.4699 15.5681 44.7554 15.237 44.2202 14.577C43.5692 13.765 43.2381 12.5516 43.2381 10.9299C43.2381 8.2264 43.7552 6.42557 44.7985 5.50701C45.2703 5.08742 45.7965 4.88329 46.368 4.88329C46.7695 4.88329 47.1074 5.01711 47.4023 5.29381C47.688 5.56144 47.8491 5.95381 47.8831 6.46186C47.9194 6.87238 48.0078 7.18537 48.1689 7.40764C48.3208 7.62083 48.6406 7.73877 49.1419 7.75465L51.1128 7.80908C51.7274 7.80908 52.0404 7.33733 52.0404 6.40062C52.0404 5.07154 51.5596 3.88535 50.5957 2.83297C49.5705 1.72616 48.1689 1.16595 46.4043 1.16595C43.9866 1.16595 42.1494 2.00513 40.902 3.66308C39.6455 5.3301 39.0195 7.73877 39.0195 10.8959C39.0195 13.232 39.616 15.178 40.8045 16.7203C42.0973 18.4145 43.9253 19.2627 46.2909 19.2627C48.4138 19.2627 50.0105 18.5052 51.0629 16.9879C51.9361 15.7314 52.3648 14.1075 52.3648 12.1184V11.4493C52.358 10.8528 52.24 10.3606 52.0177 9.9592Z" fill="#123F6D"/>
<path d="M69.9989 10.1293C69.5702 4.26865 67.7149 1.34286 64.433 1.34286C62.5778 1.34286 61.1943 2.20019 60.2757 3.92164C59.5273 5.33917 59.0351 7.31918 58.8219 9.8526C58.7062 11.2701 58.6427 12.4472 58.6427 13.384C58.6427 14.1687 58.8559 14.6155 59.2755 14.713C59.5341 14.7765 60.0149 14.8015 60.7202 14.8015C61.0514 14.8015 61.3349 14.7743 61.5685 14.7312C61.8089 14.6767 61.9881 14.552 62.1038 14.3569C62.2285 14.1596 62.292 13.6879 62.292 12.9303L66.3405 12.6718L66.3314 17.3009C66.3314 17.8361 66.3858 18.2194 66.5106 18.4599C66.6081 18.6481 66.7601 18.7728 66.9733 18.8341C67.1774 18.8885 67.4541 18.9225 67.7852 18.9225H68.3908C68.7287 18.9225 69.0327 18.8953 69.2821 18.8432C69.5316 18.7978 69.729 18.6731 69.8628 18.4871C70.0057 18.2988 70.076 18.0062 70.085 17.6048C70.1123 16.7135 70.1213 15.6792 70.1213 14.493C70.1236 12.7602 70.0805 11.3155 69.9989 10.1293ZM62.3737 9.71878C62.4372 8.70269 62.6141 7.7932 62.9089 6.98124C63.265 5.9901 63.73 5.5002 64.3083 5.5002C65.0749 5.5002 65.6192 6.22371 65.9595 7.68434C66.1023 8.38063 66.2089 9.13816 66.2543 9.96827L62.3737 9.71878ZM64.9343 15.3118C64.864 15.1077 64.6848 15.0079 64.399 15.0079C64.2834 15.0079 63.73 15.0963 62.757 15.2937C61.7749 15.4819 60.8042 15.5794 59.8402 15.5794C58.2617 15.5794 57.4679 15.0532 57.4679 13.9918C57.799 6.9631 57.9578 3.307 57.9578 3.03029C57.9578 2.35214 57.7264 1.97792 57.2524 1.88039C57.012 1.8441 56.7171 1.81688 56.3883 1.81688H54.8551C54.4627 1.81688 54.1588 1.86225 53.9365 1.93255C53.5623 2.06637 53.374 2.41338 53.374 2.98493C53.374 3.25256 53.5078 8.10393 53.7755 17.5231C53.8027 18.4508 54.1316 18.9067 54.7666 18.9067C55.0705 18.9067 55.4175 18.8613 55.8008 18.7547C56.3815 18.6209 57.2456 18.5415 58.3705 18.5415C59.9854 18.5415 61.3485 18.5959 62.4462 18.6935C63.553 18.8001 64.204 18.8454 64.399 18.8454C64.7029 18.8454 64.8799 18.7298 64.9434 18.4984C65.0069 18.2671 65.0409 17.9359 65.0409 17.5163V16.2326C65.0409 15.8289 65.0046 15.5159 64.9343 15.3118Z" fill="#123F6D"/>
<path d="M82.2282 10.3697C82.8088 9.96827 83.2443 9.46022 83.5573 8.83651C83.8612 8.2128 84.0132 7.58681 84.0132 6.98124C84.0132 4.96494 83.2284 3.45896 81.668 2.47689C80.2686 1.60369 78.4383 1.16595 76.1907 1.16595C74.1744 1.16595 72.8544 1.43358 72.2307 1.9507C71.6069 2.47689 71.2939 3.27978 71.2939 4.36845L71.6954 17.1761C71.7589 18.2829 72.5436 18.9611 74.0587 19.2265C74.7006 19.3331 75.3515 19.3875 76.0024 19.3875H76.2882C78.7672 19.324 80.6315 18.7978 81.8994 17.7999C83.1559 16.8087 83.7909 15.5159 83.7909 13.9374C83.7909 13.2411 83.6571 12.5629 83.3985 11.912C83.1377 11.252 82.7453 10.7349 82.2282 10.3697ZM78.1072 15.7314C77.5901 15.9446 77.0367 16.0444 76.4402 16.0444C76.0478 16.0444 75.6736 15.999 75.3243 15.9106L75.4309 12.1796C76.0206 12.073 76.5468 12.0095 77.0185 12.0095C77.615 12.0095 78.1253 12.098 78.5358 12.2771C79.2752 12.6083 79.6426 13.0982 79.6426 13.7763C79.6404 14.679 79.1323 15.3299 78.1072 15.7314ZM78.3839 8.47135C77.6604 8.72084 76.6896 8.83651 75.4853 8.83651L75.5397 4.51133C75.8346 4.46597 76.1362 4.44783 76.4674 4.44783C77.1455 4.44783 77.742 4.53628 78.2773 4.72453C79.2752 5.07154 79.7855 5.73154 79.7855 6.69547C79.7833 7.5596 79.3115 8.15836 78.3839 8.47135Z" fill="#B61F38"/>
<path d="M102.226 19.1199C102.511 19.0836 102.663 18.9951 102.697 18.8159C102.725 18.7003 102.743 18.5846 102.752 18.4689C102.609 18.7184 102.43 18.9316 102.226 19.1199Z" fill="#B61F38"/>
<path d="M102.55 15.6112C102.427 15.3231 102.201 15.1712 101.881 15.1553C102.169 15.3526 102.412 15.5953 102.641 15.8697C102.611 15.779 102.579 15.686 102.55 15.6112Z" fill="#B61F38"/>
<path d="M98.1229 17.2918C98.1229 16.6318 98.3815 16.0262 98.8192 15.5794C97.3835 15.5613 96.0726 15.1326 94.8773 14.2866C93.6639 13.4293 92.861 12.6899 92.4868 12.0934C95.7959 11.3359 97.447 9.54187 97.447 6.71588C97.447 4.86969 96.6713 3.46122 95.1291 2.4973C93.7387 1.64905 91.9991 1.22266 89.9193 1.22266C88.563 1.22266 87.395 1.46307 86.4061 1.94617C85.415 2.42699 84.916 3.10514 84.916 3.97154C84.916 4.19381 85.068 8.73445 85.3628 17.6093C85.3719 18.0471 85.4513 18.3578 85.5942 18.546C85.7824 18.8046 86.1929 18.9293 86.8439 18.9293H87.4336C88.1117 18.9293 88.5494 18.8137 88.7354 18.5914C88.9055 18.3941 88.994 18.0743 89.0121 17.6093L89.1278 14.2458C89.5655 14.5044 90.0736 15.0306 90.6701 15.8244C92.1239 17.8316 94.3443 18.9724 97.3155 19.2491L97.2973 19.2673L97.3767 19.2491C97.8235 19.2945 98.2862 19.3126 98.767 19.3126C98.9008 19.3126 99.0346 19.3126 99.1685 19.3036C98.5334 18.8522 98.1229 18.1219 98.1229 17.2918ZM89.2752 9.89796L89.3818 5.61587C89.7833 5.10783 90.3888 4.85835 91.1917 4.85835C91.727 4.85835 92.1987 5.0103 92.6093 5.32103C93.0107 5.63402 93.2148 6.11485 93.2148 6.76578C93.2148 7.48929 92.92 8.1561 92.3326 8.77301C91.7361 9.38992 90.72 9.76414 89.2752 9.89796Z" fill="#B61F38"/>
<path d="M113.303 5.42082C113.713 4.81525 113.918 4.25278 113.918 3.7538C113.918 3.16411 113.738 2.67421 113.382 2.29998C113.069 1.97792 112.759 1.81916 112.436 1.81916C112.08 1.81916 111.615 1.87359 111.046 1.97111C110.137 2.11854 109.413 2.20019 108.862 2.20019C107.898 2.20019 106.918 2.12988 105.918 1.99606C105.036 1.88039 104.482 1.81689 104.251 1.81689C104.02 1.81689 103.868 1.90534 103.813 2.07544C103.75 2.23648 103.725 2.48596 103.725 2.8239C103.725 4.1802 103.795 5.02618 103.929 5.35732C104.008 5.57051 104.142 5.67938 104.34 5.67938C104.571 5.67938 105.133 5.61588 106.025 5.5002C106.748 5.41175 107.549 5.34825 108.424 5.31196C108.166 5.69526 107.782 6.40969 107.256 7.44393C106.739 8.47816 106.195 9.64621 105.632 10.9322C104.285 14.053 103.607 16.1669 103.607 17.2737C103.607 17.7908 103.723 18.1922 103.938 18.478C104.151 18.7729 104.455 18.9248 104.838 18.9248C105.24 18.9248 105.687 18.8794 106.186 18.7819C107.059 18.6209 107.81 18.5415 108.442 18.5415C109.014 18.5415 109.762 18.605 110.681 18.7116C111.822 18.8545 112.466 18.9248 112.616 18.9248C112.804 18.9248 112.929 18.8273 112.972 18.6481C113.017 18.4599 113.042 18.2285 113.042 17.9518L112.979 16.2485C112.969 15.8924 112.933 15.5976 112.872 15.3844C112.808 15.1803 112.675 15.0714 112.47 15.0714C112.23 15.0714 111.695 15.1167 110.865 15.2143C109.733 15.3572 108.839 15.4275 108.161 15.4275C108.724 13.6425 109.445 11.9392 110.339 10.2994C111.225 8.66641 112.214 7.04248 113.303 5.42082Z" fill="#B61F38"/>
<path d="M12.1021 11.9143C12.059 11.7872 12.0068 11.6716 11.932 11.5559L8.18743 13.08C8.29629 13.2887 8.34846 13.5178 8.34846 13.7763C8.34846 14.6767 7.83588 15.3277 6.81299 15.7314L9.54146 18.4599C9.93383 18.2716 10.2831 18.0471 10.6029 17.7976C11.8617 16.8087 12.4854 15.5159 12.4854 13.9374C12.4877 13.2433 12.3629 12.5652 12.1021 11.9143ZM10.2173 13.9124C10.3126 13.7627 10.4169 13.6153 10.5167 13.4701C10.5507 13.4202 10.5938 13.4157 10.6392 13.452C10.6778 13.4792 10.6891 13.5291 10.6573 13.5722C10.5575 13.7219 10.4577 13.8693 10.358 14.0099C10.3421 14.0372 10.3194 14.0485 10.2854 14.0485C10.2128 14.0304 10.1788 13.9691 10.2173 13.9124ZM9.77506 13.2683C9.82496 13.2569 9.87032 13.2864 9.88393 13.3454C9.90208 13.4565 9.92702 13.5722 9.94517 13.6833C9.95651 13.74 9.96785 13.7945 9.97919 13.8489C9.99507 13.9147 9.94063 13.9714 9.89754 13.9646C9.84084 13.9578 9.81589 13.9328 9.80909 13.8943C9.77053 13.7219 9.73651 13.545 9.70476 13.3703C9.69342 13.3227 9.72744 13.2774 9.77506 13.2683ZM9.03795 13.7491C9.06516 13.7106 9.1196 13.6992 9.16042 13.7264L9.59816 14.0258C9.62537 14.044 9.64125 14.0712 9.63671 14.1029C9.62991 14.1755 9.56414 14.2118 9.49836 14.1732C9.41445 14.1165 9.32826 14.0576 9.24434 14.0009C9.1831 13.9578 9.12187 13.9169 9.06063 13.8739C9.0198 13.8421 9.013 13.7877 9.03795 13.7491ZM8.95403 14.6858C8.89733 14.6813 8.86558 14.6518 8.86104 14.6042C8.8565 14.5611 8.88372 14.5225 8.92681 14.5112C9.10372 14.4772 9.28063 14.4454 9.45754 14.4114C9.50744 14.4 9.55053 14.4341 9.55733 14.484C9.56414 14.5293 9.53465 14.5724 9.48702 14.5792C9.32826 14.611 9.1763 14.6405 9.01754 14.6722C8.99259 14.6813 8.96991 14.6813 8.95403 14.6858ZM10.9431 15.7677C10.8479 15.7858 10.7503 15.8017 10.6551 15.8221C10.6437 15.8266 10.6369 15.8289 10.6279 15.8335C10.6732 16.0648 10.7163 16.2916 10.7617 16.5184C10.7775 16.6001 10.7458 16.6409 10.6619 16.6568C10.5008 16.684 10.3375 16.718 10.1765 16.7497C10.1198 16.7566 10.0813 16.7316 10.0676 16.6726C10.0246 16.4572 9.98373 16.2372 9.94063 16.0194C9.9361 16.0036 9.93383 15.9877 9.92929 15.965C9.87259 15.9763 9.81816 15.9877 9.75919 15.9968C9.70249 16.0081 9.64352 16.024 9.58228 16.0285C9.5097 16.0398 9.46207 15.9899 9.48249 15.9174C9.52558 15.7563 9.57094 15.593 9.6163 15.4297C9.65486 15.2869 9.69795 15.144 9.73651 15.0033C9.7796 14.865 9.81816 14.7266 9.85671 14.5883C9.87259 14.5225 9.89074 14.4613 9.91115 14.4C9.91795 14.366 9.9429 14.3456 9.97239 14.3388C10.0064 14.332 10.0382 14.3388 10.0608 14.3706C10.1334 14.4658 10.2105 14.5633 10.2831 14.6586C10.4215 14.8355 10.5553 15.017 10.6959 15.1939C10.8002 15.3277 10.9068 15.466 11.0112 15.6066C11.0792 15.6815 11.052 15.7427 10.9431 15.7677ZM11.0588 14.2821C10.993 14.298 10.9272 14.3093 10.8615 14.3207C10.7526 14.3433 10.646 14.3638 10.5371 14.3819C10.4827 14.3932 10.4373 14.366 10.426 14.3161C10.4147 14.2662 10.4419 14.2231 10.4963 14.2118C10.6687 14.1778 10.8433 14.1415 11.0157 14.1075H11.0429C11.086 14.112 11.1155 14.1415 11.12 14.1846C11.1291 14.2277 11.1064 14.2708 11.0588 14.2821Z" fill="#B61F38"/>
<path d="M101.94 2.02101C101.761 1.96658 101.484 1.94163 101.11 1.94163H99.5677C99.2457 1.94163 98.9622 1.96884 98.7104 2.00513C98.2908 2.08451 98.0776 2.37936 98.0776 2.88741C98.0776 3.04844 98.2387 6.50041 98.5675 13.2343C98.5857 13.8671 98.7717 14.2685 99.1119 14.4295C99.316 14.5089 99.8513 14.5543 100.727 14.5543C101.192 14.5543 101.53 14.4998 101.725 14.3932C102.02 14.2231 102.181 13.8398 102.205 13.2343C102.428 6.62516 102.543 3.2004 102.543 2.97813C102.546 2.4406 102.342 2.11854 101.94 2.02101Z" fill="#123F6D"/>
<path d="M100.584 19.3126C101.7 19.3126 102.605 18.4079 102.605 17.2918C102.605 16.1757 101.7 15.271 100.584 15.271C99.4677 15.271 98.563 16.1757 98.563 17.2918C98.563 18.4079 99.4677 19.3126 100.584 19.3126Z" fill="#123F6D"/>
</g>
<defs>
<clipPath id="clip0_720_391">
<rect width="118" height="18.7749" fill="white" transform="translate(0 0.612549)"/>
</clipPath>
</defs>
</svg>
